<svg width="12" height="8" viewBox="0 0 12 8" fill="none" xmlns="http://www.w3.org/2000/svg">
<path d="M5.96288 5.17924L1.81872 1.03509C1.66082 0.882584 1.44934 0.798198 1.22983 0.800106C1.01032 0.802013 0.800338 0.890061 0.645114 1.04529C0.489889 1.20051 0.401841 1.41049 0.399934 1.63C0.398026 1.84951 0.482412 2.06099 0.634915 2.21889L5.37098 6.95495C5.52797 7.1119 5.74088 7.20007 5.96288 7.20007C6.18487 7.20007 6.39778 7.1119 6.55478 6.95495L11.2908 2.21889C11.4433 2.06099 11.5277 1.84951 11.5258 1.63C11.5239 1.41049 11.4359 1.20051 11.2806 1.04529C11.1254 0.890061 10.9154 0.802013 10.6959 0.800106C10.4764 0.798198 10.2649 0.882584 10.107 1.03509L5.96288 5.17924Z" fill="black"/>
</svg>
